HIERARCHY
ROOT Hips
{
  OFFSET -102.467 93.6631 130.069
  CHANNELS 6 Xposition Yposition Zposition Zrotation Xrotation Yrotation
  JOINT LeftUpLeg
  {
    OFFSET 8.64259 1.95398 -2.38835
    CHANNELS 3 Zrotation Xrotation Yrotation
    JOINT LeftLeg
    {
      OFFSET 43.7702 0 0
      CHANNELS 3 Zrotation Xrotation Yrotation
      JOINT LeftFoot
      {
        OFFSET 40.6238 0 0
        CHANNELS 3 Zrotation Xrotation Yrotation
        JOINT LeftToeBase
        {
          OFFSET 12.7242 0 0
          CHANNELS 3 Zrotation Xrotation Yrotation
          End Site
          {
            OFFSET 0 0 0
          }
        }
      }
    }
  }
  JOINT RightUpLeg
  {
    OFFSET -8.2249 1.95398 -2.59336
    CHANNELS 3 Zrotation Xrotation Yrotation
    JOINT RightLeg
    {
      OFFSET 43.5653 0 0
      CHANNELS 3 Zrotation Xrotation Yrotation
      JOINT RightFoot
      {
        OFFSET 40.6238 0 0
        CHANNELS 3 Zrotation Xrotation Yrotation
        JOINT RightToeBase
        {
          OFFSET 12.7242 0 0
          CHANNELS 3 Zrotation Xrotation Yrotation
          End Site
          {
            OFFSET 0 0 0
          }
        }
      }
    }
  }
  JOINT Spine
  {
    OFFSET 0.165834 0.87714 6.61349
    CHANNELS 3 Zrotation Xrotation Yrotation
    JOINT Spine1
    {
      OFFSET 7.38963 1.71661e-005 0
      CHANNELS 3 Zrotation Xrotation Yrotation
      JOINT Spine2
      {
        OFFSET 11.9445 1.14441e-005 0
        CHANNELS 3 Zrotation Xrotation Yrotation
        JOINT Spine3
        {
          OFFSET 14.7254 4.19617e-005 0
          CHANNELS 3 Zrotation Xrotation Yrotation
          JOINT Spine4
          {
            OFFSET 10.9679 0 0
            CHANNELS 3 Zrotation Xrotation Yrotation
            JOINT RightShoulder
            {
              OFFSET 2.46616 -1.6653 3.69651
              CHANNELS 3 Zrotation Xrotation Yrotation
              JOINT RightArm
              {
                OFFSET 13.0012 0 0
                CHANNELS 3 Zrotation Xrotation Yrotation
                JOINT RightForeArm
                {
                  OFFSET 28.7848 1.52588e-005 0
                  CHANNELS 3 Zrotation Xrotation Yrotation
                  JOINT RightHand
                  {
                    OFFSET 26.5688 1.52588e-005 0
                    CHANNELS 3 Zrotation Xrotation Yrotation
                    End Site
                    {
                      OFFSET 0 0 0
                    }
                  }
                }
              }
            }
            JOINT LeftShoulder
            {
              OFFSET 2.38034 -1.29275 -3.7523
              CHANNELS 3 Zrotation Xrotation Yrotation
              JOINT LeftArm
              {
                OFFSET 16.3182 6.10351e-005 0
                CHANNELS 3 Zrotation Xrotation Yrotation
                JOINT LeftForeArm
                {
                  OFFSET 27.0901 0 0
                  CHANNELS 3 Zrotation Xrotation Yrotation
                  JOINT LeftHand
                  {
                    OFFSET 24.5451 1.52588e-005 0
                    CHANNELS 3 Zrotation Xrotation Yrotation
                    End Site
                    {
                      OFFSET 0 0 0
                    }
                  }
                }
              }
            }
            JOINT Neck
            {
              OFFSET 5.0226 -0.0266342 0
              CHANNELS 3 Zrotation Xrotation Yrotation
              JOINT Head
              {
                OFFSET 6.69363 2.86102e-005 0
                CHANNELS 3 Zrotation Xrotation Yrotation
                End Site
                {
                  OFFSET 0 0 0
                }
              }
            }
          }
        }
      }
    }
  }
}
MOTION
Frames:	12
Frame Time:	0.0416667
-122.7 85.4832 -119.271 -167.49 68.2376 -27.193 177.991 23.3163 90.0532 -49.1909 14.0458 4.5184 49.8862 -2.93087 5.48561 55.4985 1.30672 14.6152 178.419 26.738 87.8486 -72.2703 -22.6161 -2.85631 58.2775 4.13113 6.44883 27.7892 1.82648 10.8802 -0.24257 9.17158 -90.5626 8.52647 -0.732782 -1.06597 -3.14458 -0.778986 -1.03271 -25.6777 -0.378541 -1.2369 -5.66507 -0.378542 -1.2369 100.206 -48.6687 -85.275 13.3988 -4.5865 -1.86642 -1.20201 -16.036 -5.9047 -9.19726 -0.42936 0.325906 -84.3633 -55.1215 87.5364 2.79877 5.00017 -7.40373 17.8535 6.15084 -53.6706 12.3494 0.0617872 -3.27002 -1.44787 -3.39229 -2.64101 -12.8362 -3.10626 1.81844 
-132.044 86.7371 -128.333 123.143 68.7934 44.5485 178.599 19.7008 99.6867 -21.9458 16.6767 5.1313 37.6233 -9.6298 -10.4544 54.4684 1.71208 16.0316 -175.822 28.5106 83.0753 -75.4452 -21.8233 -5.7894 72.9832 2.20174 17.3325 10.5284 4.15606 14.0038 0.931088 9.04241 -90.797 8.79777 1.50335 -1.67728 -2.87347 1.42809 -1.74179 -25.4109 1.93789 -1.14791 -5.39828 1.9379 -1.14791 97.9552 -44.5182 -89.2083 10.3859 -10.0891 -18.8607 -3.55928 -9.72582 -19.6609 -10.4299 -0.284676 -2.0941 -82.8697 -56.6186 89.7957 1.19739 7.90464 2.57663 10.9496 10.3026 -38.9744 5.88691 -0.0948958 -4.4305 -4.56741 -11.7511 1.62339 -6.13314 -11.6103 -14.3027 
-141.898 85.3563 -137.119 90.9961 46.07 78.6182 -177.959 13.6931 108.162 -14.8354 24.6507 6.29755 39.3405 -8.068 -10.2866 55.1447 1.98787 16.3572 -177.834 40.6086 76.357 -77.0968 -22.2009 -3.90279 76.2691 1.94315 19.9232 17.9148 3.43918 12.0574 2.07871 9.32425 -91.0263 8.26141 3.69738 -2.25282 -3.40639 3.59467 -2.41347 -25.9806 4.2033 -1.03597 -5.96791 4.2033 -1.03598 96.5041 -39.7375 -92.2521 3.12145 -17.1408 -44.038 -7.6516 -11.1147 -30.6776 -10.8722 -0.133975 -4.0341 -83.7852 -55.7669 88.417 -12.2545 2.5827 10.6707 3.54419 5.22749 -22.7376 9.04937 -0.189288 -5.46388 -1.11235 -19.187 0.459931 -3.98604 -19.0037 -25.3102 
-152.797 82.8213 -143.588 85.1446 36.0338 84.9587 -179.563 25.432 106.148 -41.0054 19.7626 7.70486 60.8946 2.55483 -0.403932 69.9967 4.03958 20.3274 164.996 55.0991 78.9969 -77.3547 -13.4356 1.80292 68.133 0.292341 10.3857 41.3551 1.14581 15.5627 1.49181 10.1526 -91.1257 6.58688 2.50063 -2.30564 -5.08405 2.39676 -2.41342 -27.6294 3.07777 -1.44737 -7.61673 3.07776 -1.44737 95.7331 -38.9044 -93.7516 6.36105 -19.5701 -61.2802 -11.6643 -5.20584 -44.9701 -9.80721 0.0685989 -6.18242 -87.2735 -50.849 82.7121 -24.9664 -0.158636 -1.01416 1.5478 6.81682 -4.40824 7.80922 -0.0638428 -4.45291 3.52049 -22.2307 -9.60305 -0.472259 -20.8887 -21.2543 
-160.029 82.1981 -146.978 77.6252 36.4418 86.3125 179.428 37.0985 99.5881 -48.1664 20.8373 4.24174 62.5205 7.31083 8.92606 68.1082 3.90784 20.2058 150.065 64.8791 86.2745 -77.1464 -9.36984 4.89236 65.8626 -0.325537 6.48955 41.9058 0.376499 12.3629 0.721604 10.9456 -90.8032 4.98716 1.1113 -1.59664 -6.68436 1.03995 -1.644 -29.2184 1.53974 -1.18888 -9.20579 1.53974 -1.18889 95.898 -41.7786 -93.0307 3.82641 -25.091 -67.0418 -18.8869 -5.46433 -53.8483 -10.2514 -0.00144347 -5.26463 -93.9176 -48.9737 72.3507 -15.1595 -1.36432 -27.0802 0.747894 15.4813 0.261929 5.01344 -0.223017 -6.29762 10.3517 -23.6671 -14.8887 0.470211 -20.5186 -16.829 
-163.216 81.8316 -148.642 74.3606 33.5759 86.3007 -177.712 41.843 96.4886 -51.0748 21.4046 2.01314 62.5869 8.18124 11.6094 69.1327 3.15221 18.3324 139.836 67.3274 97.2237 -81.4685 -10.2209 4.59708 62.6018 -0.65362 2.60725 56.6429 -3.1364 8.88541 0.566416 11.7876 -90.4582 3.30138 0.949661 -0.890726 -8.36955 0.909538 -0.93166 -30.9063 1.17344 -0.564118 -10.8937 1.17344 -0.564124 96.0957 -47.0337 -91.9881 4.86615 -27.2638 -66.8235 -9.95203 -7.09204 -41.1539 -13.0966 -0.479731 -0.954883 -95.1899 -43.1574 68.5638 -12.3223 -8.48789 -54.7249 4.86266 18.3917 0.00775585 11.3452 -0.166545 -5.00201 9.09784 -22.9457 -18.6927 7.26271 -19.6991 -12.6339 
-163.316 81.3679 -150.124 72.7036 33.9373 85.1753 -175.098 43.3366 93.6024 -52.1744 23.1424 0.372629 63.9872 9.10308 12.1884 68.4891 2.38327 16.6424 133.169 68.2157 101.274 -87.0098 -12.4247 3.60847 61.4288 -1.29694 0.527849 63.4938 -4.01982 9.60976 0.102236 12.1643 -90.4048 2.54438 0.0460585 -0.789371 -9.12684 0.0112681 -0.790648 -31.66 0.281144 -0.739047 -11.6473 0.281157 -0.73905 95.5351 -50.8977 -92.3896 11.442 -29.1844 -56.7829 -2.5903 -3.32151 -38.0135 -27.108 -2.88736 7.38754 -94.4572 -40.5568 68.8449 -9.90187 -2.98753 -73.2365 4.31138 20.2697 -7.53008 6.38151 -0.282788 -6.8526 10.9809 -22.3767 -17.2742 8.58619 -19.2859 -12.9307 
-160.228 81.884 -150.587 71.4171 32.3136 82.6563 -171.382 39.4113 91.4978 -47.3121 22.4019 -1.63918 65.3303 8.94558 10.0954 67.9736 1.68862 15.1391 133.718 68.35 99.2057 -86.7968 -14.2411 3.80437 61.6547 -0.626887 2.20055 63.2082 -4.28351 9.00345 -0.67053 12.0485 -90.0902 2.77537 -1.37439 -0.194167 -8.89484 -1.38162 -0.133502 -31.4348 -1.25248 -0.598321 -11.4221 -1.25248 -0.598308 96.6638 -53.2122 -90.4178 16.3658 -35.6007 -47.0362 0.312711 2.8047 -44.3314 -24.7902 -2.69666 7.55428 -94.0834 -37.2046 68.2916 -8.91172 6.28705 -77.6949 17.133 20.3859 -40.1754 3.51225 -0.267788 -7.54388 15.666 -21.6369 -14.9942 6.10021 -18.1717 -13.0783 
-152.173 83.1555 -149.579 69.701 22.7752 79.617 -172.825 27.055 94.2974 -35.31 17.9866 -0.119793 63.0571 4.10861 2.79992 73.0748 4.25862 20.0595 140.288 61.1911 95.6731 -77.6866 -20.3882 7.04228 59.5076 -0.327774 -0.547108 66.4432 -2.48106 13.3443 -0.840316 11.3003 -89.8648 4.27457 -1.6241 0.276796 -7.3954 -1.61037 0.348012 -29.9387 -1.6322 -0.22425 -9.92608 -1.6322 -0.22427 95.812 -54.3501 -91.5607 15.465 -42.8457 -40.3088 25.8419 21.2171 -56.8941 -40.0359 -5.11191 8.9403 -94.6128 -41.772 69.0118 -7.74545 14.0739 -68.7778 23.814 21.7105 -49.5142 7.41583 -0.0849871 -4.38881 20.6884 -19.056 -5.66311 -0.360284 -17.0957 -15.3737 
-141.076 83.5117 -145.53 69.3513 9.91158 76.2348 -175.98 24.0638 96.1194 -46.6147 13.7692 2.64383 47.9937 -4.32497 0.865336 62.616 3.34697 19.7649 155.576 49.43 89.8174 -72.7292 -17.2343 6.57126 65.3465 -0.321103 5.412 58.8431 1.53052 20.2106 -0.514124 10.5985 -89.7647 5.67842 -0.92879 0.486277 -5.99231 -0.906517 0.526688 -28.53 -1.03199 0.184638 -8.51731 -1.03202 0.184642 95.7401 -55.217 -91.5705 17.5417 -38.2168 -35.4743 60.8128 34.4084 -75.299 -29.0263 -2.55997 4.89219 -93.8911 -51.6929 73.1282 -13.327 9.09859 -42.5995 15.8484 28.4076 -31.1302 14.9105 0.205036 -2.42522 21.912 -16.3947 -3.10648 -1.38641 -15.0297 -10.4633 
-129.405 83.2069 -141.097 71.1158 -3.11322 74.0992 -177.151 37.6358 89.9367 -81.7484 15.7224 2.50998 55.2157 3.28028 11.5517 62.2728 1.49358 14.8547 167.843 33.6394 88.636 -66.3552 -17.4591 3.53906 66.7647 -0.868518 4.58649 64.4715 1.48546 20.7606 0.427104 10.5147 -89.7282 5.84049 0.967046 0.505017 -5.83018 0.98835 0.461947 -28.3665 0.770564 0.772293 -8.35389 0.770572 0.772298 97.0049 -51.1368 -90.0925 25.3108 -16.3338 -37.1999 43.1338 20.0252 -72.3855 -39.4527 -2.7802 2.60938 -91.5715 -55.3264 77.3407 -11.4561 0.726053 -11.9918 5.74351 25.1636 -12.2097 10.9715 0.270013 -1.35533 23.7308 -14.2689 2.31806 -4.12217 -14.479 -11.6477 
-116.192 85.1452 -133.574 69.4155 -7.26416 67.4278 -165.047 56.7012 72.0087 -78.4568 14.7089 -0.874263 61.2329 6.39212 10.9331 65.9596 0.772018 13.1253 173.746 13.6251 80.7843 -44.0423 -15.8742 0.141848 66.3374 0.627281 7.06537 51.2413 1.38098 20.4872 1.00685 10.0938 -89.2768 6.68525 2.31991 1.33887 -4.98406 2.37658 1.23543 -27.5264 1.81028 1.97422 -7.51374 1.8103 1.97422 99.7336 -44.7656 -86.227 26.2806 4.2362 -39.1554 4.90314 -0.524475 -81.9445 -35.4045 -2.27902 2.30019 -91.8501 -49.3571 75.5118 -15.1693 3.57715 14.2103 3.66148 20.1985 -12.6365 12.5322 0.309175 -1.37559 21.9629 -15.5086 7.82993 -3.87025 -17.4559 -15.2717 
